<svg xmlns="http://www.w3.org/2000/svg" id="Capa_1" height="512" viewBox="0 0 510.87 510.87" width="512"><g><path d="m441.805 123.18h-11.565c-15.443-24.922-36.256-45.56-67.793-45.56h-21.771v-23.47c0-29.858-24.292-54.15-54.15-54.15h-14.79c-4.142 0-7.5 3.357-7.5 7.5s3.358 7.5 7.5 7.5h14.79c21.587 0 39.15 17.562 39.15 39.15v23.454l-8.15.016h-8.15v-23.41c0-12.633-10.25-22.91-22.85-22.91h-62.18c-12.6 0-22.85 10.251-22.85 22.851v23.47h-16.3v-23.471c0-21.588 17.563-39.15 39.15-39.15h14.7c4.142 0 7.5-3.357 7.5-7.5s-3.358-7.5-7.5-7.5h-14.7c-29.858 0-54.15 24.292-54.15 54.15v23.47h-21.78c-31.16 0-52.373 20.778-67.786 45.56h-11.565c-12.699 0-23.03 10.331-23.03 23.03s10.331 23.03 23.03 23.03h8.366l13.852 304.884c.947 20.605 17.841 36.746 38.462 36.746h251.38c20.621 0 37.516-16.141 38.462-36.75l5.04-111.01c.188-4.138-3.014-7.645-7.152-7.832-4.16-.169-7.645 3.014-7.833 7.152l-5.04 111.006c-.578 12.579-10.891 22.434-23.478 22.434h-251.38c-12.587 0-22.9-9.854-23.478-22.431l-13.819-304.199h197.848c4.142 0 7.5-3.357 7.5-7.5 0-.01 0-.02 0-.03s0-.02 0-.03c0-4.143-3.358-7.5-7.5-7.5l-221.23.061c-4.428 0-8.03-3.603-8.03-8.03s3.602-8.03 8.03-8.03h372.74c4.428 0 8.03 3.603 8.03 8.03s-3.602 8.03-8.03 8.03l-118.83-.061c-4.142 0-7.5 3.357-7.5 7.5v.03.03c0 4.143 3.358 7.5 7.5 7.5h95.449l-7.291 160.53c-.188 4.138 3.014 7.645 7.152 7.832.116.005.231.008.346.008 3.985 0 7.304-3.138 7.486-7.16l7.322-161.21h8.366c12.699 0 23.03-10.331 23.03-23.03s-10.331-23.03-23.03-23.03zm-225.31-69.03c0-4.329 3.521-7.851 7.85-7.851h62.18c4.329 0 7.85 3.549 7.85 7.91v23.41h-77.88zm-68.08 38.47h214.032c20.979 0 39.155 13.078 49.639 30.56h-313.307c11.656-18.06 31.406-30.694 49.636-30.56z" fill="#ffffff"/><path d="m141.868 204.746c-11.933 0-24.159 8.555-23.665 22.631l7.711 219.508c.416 11.828 10.013 21.094 21.849 21.094 13.603-1.333 20.887-8.816 21.854-22.449l-5.895-219.507c-.32-11.931-9.919-21.277-21.854-21.277zm-.963 241.611-7.711-219.508c-.308-8.767 15.274-10.142 15.535-.425l5.895 219.507c0 9.106-13.189 9.772-13.719.426z" fill="#ffffff"/><path d="m218.185 204.746c-11.75 0-23.883 8.341-23.682 22.186l3.175 219.495c.172 11.884 9.981 21.552 21.866 21.552 13.392-1.27 20.681-8.605 21.868-22.004l-1.359-219.495c-.075-11.984-9.885-21.734-21.868-21.734zm-5.509 241.464-3.175-219.495c-.126-8.723 15.491-9.92 15.552-.142l1.359 219.495c.856 9.802-13.644 11.469-13.736.142z" fill="#ffffff"/><path d="m294.512 204.746c-12.244 0-23.6 8.151-23.684 21.733l-1.36 219.495c1.187 13.4 8.476 20.734 21.868 22.004 11.885 0 21.694-9.668 21.866-21.552l3.176-219.495c-1.1-13.494-7.497-22.185-21.866-22.185zm6.868 21.969-3.176 219.495c-.102 8.493-13.782 7.098-13.736-.142l1.36-219.496c.06-9.778 15.676-8.579 15.552.143z" fill="#ffffff"/><path d="m370.818 204.746c-12.216 0-23.31 7.864-23.67 21.276l-5.895 219.507c.967 13.633 8.252 21.116 21.854 22.449 11.836 0 21.434-9.266 21.849-21.094l7.711-219.508c-.878-13.726-7.486-22.63-21.849-22.63zm6.858 22.104-7.711 219.508c-.28 9.513-14.196 10.263-13.718-.426l5.895-219.507c.261-9.718 15.842-8.342 15.534.425z" fill="#ffffff"/></g></svg>