<svg xmlns="http://www.w3.org/2000/svg" id="Capa_1" height="512" viewBox="0 0 512 512" width="512"><g><g><path d="m210.348 305.807c1.464 1.464 3.384 2.196 5.303 2.196s3.839-.732 5.304-2.197c2.929-2.929 2.929-7.678-.001-10.606l-8.153-8.153c-2.928-2.93-7.677-2.929-10.606 0s-2.929 7.678.001 10.606z" fill="#ffffff"/><path d="m295.199 220.953c1.465 1.464 3.385 2.197 5.304 2.197s3.839-.732 5.304-2.197c2.929-2.929 2.929-7.678 0-10.606l-8.152-8.152c-2.93-2.929-7.678-2.929-10.607 0s-2.929 7.678 0 10.606z" fill="#ffffff"/><path d="m246.134 276.501c.655.045 1.31.067 1.961.067 7.532 0 14.782-2.979 20.139-8.336 5.818-5.819 8.832-13.873 8.269-22.098-.283-4.132-3.899-7.252-7.995-6.969-4.133.283-7.253 3.863-6.97 7.996.268 3.898-1.158 7.712-3.911 10.465s-6.56 4.183-10.463 3.91c-4.138-.281-7.713 2.836-7.997 6.968s2.835 7.713 6.967 7.997z" fill="#ffffff"/><path d="m504.313 376.63-87.983-87.984c-17.553-17.551-46.109-17.551-63.66 0l-87.982 87.984c-4.957 4.957-7.688 11.547-7.688 18.557s2.73 13.601 7.687 18.557c4.957 4.957 11.547 7.687 18.557 7.687 2.125 0 4.211-.255 6.226-.743v65.351c0 14.315 11.646 25.961 25.962 25.961h138.139c14.315 0 25.962-11.646 25.962-25.961v-65.351c2.014.488 4.1.743 6.226.743 7.01 0 13.6-2.729 18.556-7.686 4.957-4.957 7.688-11.547 7.688-18.558-.003-7.01-2.733-13.601-7.69-18.557zm-90.39 120.37h-58.846v-66.346c0-16.224 13.199-29.423 29.423-29.423s29.423 13.199 29.423 29.423zm79.783-93.863c-2.123 2.124-4.946 3.293-7.949 3.293-3.004 0-5.827-1.169-7.95-3.293l-28.762-28.762c-2.93-2.929-7.678-2.929-10.607 0s-2.929 7.678 0 10.606l26.094 26.094v74.963c0 6.044-4.918 10.961-10.962 10.961h-24.646v-66.346c0-24.495-19.928-44.423-44.423-44.423s-44.423 19.928-44.423 44.423v66.347h-24.646c-6.044 0-10.962-4.917-10.962-10.961v-74.963l80.031-80.031 32.724 32.725c2.929 2.929 7.677 2.929 10.607 0 2.929-2.929 2.929-7.678 0-10.606l-38.027-38.028c-1.407-1.407-3.314-2.197-5.304-2.197s-3.896.79-5.304 2.197l-88.003 88.002c-2.123 2.124-4.946 3.293-7.95 3.293-3.003 0-5.826-1.169-7.95-3.293-2.123-2.124-3.293-4.947-3.293-7.95s1.17-5.826 3.294-7.95l87.982-87.984c11.703-11.702 30.745-11.702 42.446 0l87.984 87.985c2.123 2.124 3.293 4.947 3.293 7.95 0 3.001-1.17 5.824-3.294 7.948z" fill="#ffffff"/><path d="m369.857 209.318c10.771 3.653 22.178 5.592 33.893 5.674.259.002.516.003.773.003 28.711 0 55.674-11.164 75.996-31.486 21.567-21.567 32.982-51.417 31.32-81.895-.602-11.016-7.37-20.306-17.664-24.244-10.264-3.927-21.475-1.538-29.252 6.24l-18.582 18.583c-4.879 4.879-11.366 7.566-18.267 7.566s-13.388-2.687-18.267-7.566c-4.88-4.879-7.566-11.367-7.566-18.267s2.687-13.388 7.566-18.267l18.587-18.587c7.779-7.779 10.174-19.016 6.248-29.323-3.885-10.209-13.047-16.941-23.909-17.569-24.926-1.441-49.697 5.86-69.731 20.559-3.34 2.45-4.061 7.144-1.61 10.483 2.451 3.34 7.144 4.061 10.483 1.61 17.229-12.641 38.542-18.911 59.993-17.678 4.954.287 8.976 3.251 10.758 7.93 1.82 4.781.76 9.782-2.838 13.379l-18.587 18.587c-15.921 15.921-15.921 41.826 0 57.747 15.922 15.921 41.826 15.921 57.748 0l18.582-18.583c3.587-3.587 8.557-4.646 13.284-2.837 4.76 1.821 7.768 5.953 8.046 11.052 1.432 26.228-8.392 51.914-26.949 70.471-17.487 17.487-40.685 27.094-65.392 27.093-.221 0-.444-.001-.665-.002-24.949-.174-48.277-10.13-65.688-28.033-31.144-32.025-34.631-83.337-8.113-119.356 2.455-3.335 1.742-8.03-1.594-10.486s-8.03-1.742-10.486 1.593c-14.896 20.233-22.219 45.328-20.622 70.661.599 9.495 2.45 18.789 5.44 27.66l-160.684 160.686c-10.864-3.704-22.505-5.716-34.608-5.716-59.275 0-107.5 48.224-107.5 107.5s48.225 107.5 107.5 107.5 107.5-48.224 107.5-107.5c0-12.102-2.012-23.743-5.716-34.608zm-60.743-52.394c4.791 9.297 10.924 17.909 18.3 25.494 8.177 8.408 17.479 15.306 27.573 20.557l-152.063 152.063c-10.22-19.638-26.324-35.741-45.962-45.962zm-201.614 340.076c-51.005 0-92.5-41.495-92.5-92.5s41.495-92.5 92.5-92.5 92.5 41.495 92.5 92.5-41.495 92.5-92.5 92.5z" fill="#ffffff"/><path d="m107.5 357c-26.191 0-47.5 21.309-47.5 47.5s21.309 47.5 47.5 47.5 47.5-21.309 47.5-47.5-21.309-47.5-47.5-47.5zm0 80c-17.921 0-32.5-14.58-32.5-32.5s14.579-32.5 32.5-32.5 32.5 14.58 32.5 32.5-14.579 32.5-32.5 32.5z" fill="#ffffff"/><path d="m3.015 175.641 9.836 17.036c4.712 8.164 14.113 12.548 23.399 10.908l18.276-3.229c6.886 5.311 14.401 9.656 22.415 12.959l6.334 17.419c3.222 8.859 11.719 14.811 21.146 14.811h19.671c9.426 0 17.924-5.952 21.146-14.811l6.334-17.419c8.014-3.304 15.528-7.648 22.414-12.959l18.277 3.229c9.286 1.639 18.686-2.744 23.399-10.907l9.836-17.037c4.713-8.163 3.807-18.498-2.254-25.717l-11.933-14.212c.566-4.287.854-8.625.854-12.938s-.287-8.651-.854-12.938l11.934-14.212c6.061-7.219 6.967-17.554 2.254-25.718l-9.836-17.037c-4.714-8.163-14.115-12.545-23.399-10.907l-18.277 3.229c-6.886-5.311-14.399-9.655-22.414-12.959l-6.335-17.42c-3.222-8.86-11.72-14.812-21.146-14.812h-19.671c-9.427 0-17.924 5.952-21.146 14.811l-6.334 17.419c-8.016 3.304-15.529 7.648-22.415 12.959l-18.277-3.229c-9.28-1.638-18.686 2.744-23.398 10.907l-9.836 17.037c-4.714 8.163-3.809 18.499 2.253 25.719l11.934 14.212c-.567 4.29-.854 8.627-.854 12.938s.287 8.649.854 12.938l-11.934 14.212c-6.062 7.22-6.967 17.555-2.253 25.718zm13.741-16.073 14.109-16.804c1.414-1.684 2.018-3.904 1.651-6.073-.776-4.589-1.17-9.272-1.17-13.919 0-4.646.394-9.329 1.17-13.919.366-2.168-.237-4.389-1.651-6.073l-14.109-16.802c-2.021-2.407-2.322-5.852-.751-8.573l9.836-17.037c1.571-2.721 4.706-4.181 7.8-3.635l21.616 3.818c2.172.383 4.398-.207 6.094-1.614 7.223-5.994 15.327-10.679 24.089-13.927 2.064-.766 3.688-2.399 4.441-4.469l7.492-20.604c1.073-2.953 3.906-4.937 7.048-4.937h19.671c3.143 0 5.976 1.984 7.049 4.937l7.492 20.604c.753 2.069 2.377 3.704 4.441 4.469 8.761 3.248 16.865 7.934 24.088 13.927 1.695 1.407 3.924 1.997 6.094 1.614l21.616-3.818c3.103-.546 6.229.916 7.801 3.636l9.836 17.036c1.57 2.721 1.269 6.167-.752 8.573l-14.108 16.803c-1.414 1.685-2.018 3.904-1.651 6.073.775 4.586 1.169 9.27 1.169 13.919 0 4.65-.394 9.333-1.169 13.919-.366 2.168.237 4.389 1.651 6.073l14.108 16.804c2.021 2.406 2.322 5.852.752 8.572l-9.836 17.036c-1.571 2.722-4.704 4.183-7.8 3.636l-21.617-3.818c-2.175-.384-4.398.207-6.094 1.614-7.224 5.994-15.328 10.68-24.088 13.927-2.064.765-3.688 2.399-4.441 4.469l-7.491 20.603c-1.074 2.954-3.907 4.938-7.05 4.938h-19.671c-3.142 0-5.975-1.984-7.048-4.937l-7.492-20.604c-.753-2.07-2.377-3.704-4.442-4.469-8.76-3.248-16.864-7.933-24.088-13.927-1.356-1.125-3.054-1.728-4.789-1.728-.434 0-.871.038-1.305.114l-21.616 3.818c-3.094.547-6.229-.915-7.8-3.636l-9.836-17.037c-1.571-2.721-1.27-6.165.751-8.572z" fill="#ffffff"/><path d="m114.257 170.272c26.191 0 47.5-21.309 47.5-47.5s-21.309-47.5-47.5-47.5-47.5 21.309-47.5 47.5 21.308 47.5 47.5 47.5zm0-80c17.921 0 32.5 14.58 32.5 32.5s-14.579 32.5-32.5 32.5-32.5-14.58-32.5-32.5 14.579-32.5 32.5-32.5z" fill="#ffffff"/></g></g></svg>