<svg xmlns="http://www.w3.org/2000/svg" id="Capa_1" height="512" viewBox="0 0 512 512" width="512"><g><path d="m473.44 185.03c4.143 0 7.5-3.358 7.5-7.5v-170.03c0-4.142-3.357-7.5-7.5-7.5h-263.19c-4.142 0-7.5 3.358-7.5 7.5s3.358 7.5 7.5 7.5h98.078c-4.436 16.048-15.251 29.289-30.719 35.883-2.743 1.169-4.533 3.853-4.56 6.834-.025 2.982 1.718 5.696 4.439 6.912 18.742 8.169 29.303 27.122 33.476 46.333.979 3.136 3.884 5.264 7.158 5.264.048 0 .098 0 .146-.001 3.334-.064 6.226-2.322 7.096-5.541 3.454-19.188 14.822-37.472 33.275-45.338 2.743-1.169 4.533-3.853 4.56-6.834.025-2.982-1.718-5.696-4.439-6.912-15.04-6.949-26.198-20.634-30.436-36.6h75.486v140.31h-200.137c4.437-16.046 15.251-29.285 30.718-35.877 2.741-1.168 4.53-3.848 4.559-6.828.029-2.979-1.709-5.693-4.427-6.914-18.749-8.167-29.314-27.124-33.488-46.339-.995-3.183-3.995-5.324-7.304-5.263-3.334.064-6.225 2.322-7.095 5.541-3.453 19.189-14.822 37.473-33.275 45.338-2.741 1.168-4.53 3.848-4.559 6.828-.029 2.979 1.709 5.693 4.427 6.914 15.044 6.946 26.206 20.632 30.447 36.6h-75.486v-140.31h69.37c4.142 0 7.5-3.358 7.5-7.5s-3.358-7.5-7.5-7.5h-139c-4.142 0-7.5 3.358-7.5 7.5v497c0 4.142 3.358 7.5 7.5 7.5h434.88c4.143 0 7.5-3.358 7.5-7.5v-294.28c0-4.142-3.357-7.5-7.5-7.5s-7.5 3.358-7.5 7.5v286.78h-419.88v-482h47.13v240.99c0 4.142 3.358 7.5 7.5 7.5h85.69v23.57c0 4.142 3.358 7.5 7.5 7.5h38.528v47.126c-4.007.154-7.208 3.45-7.208 7.494v100.96c0 16.983 13.817 30.8 30.8 30.8s30.8-13.817 30.8-30.8v-22.49c0-4.142-3.357-7.5-7.5-7.5s-7.5 3.358-7.5 7.5v22.49c0 8.712-7.088 15.8-15.8 15.8s-15.8-7.088-15.8-15.8v-93.454l31.6-.006v38.29c0 4.142 3.357 7.5 7.5 7.5s7.5-3.358 7.5-7.5v-45.79c0-4.774-4.265-7.236-8.329-7.5v-47.12h39.649c4.143 0 7.5-3.358 7.5-7.5v-23.57h85.689c4.143 0 7.5-3.358 7.5-7.5v-240.99h47.131v162.53c0 4.142 3.358 7.5 7.5 7.5zm-132.96-126.694c-9.667 6.725-17.421 15.836-22.518 26.501-4.941-10.783-12.59-20.054-22.194-26.945 9.666-6.725 17.42-15.835 22.517-26.5 4.942 10.784 12.59 20.053 22.195 26.944zm-168.96 53.642c9.666-6.724 17.42-15.836 22.517-26.5 4.943 10.787 12.59 20.055 22.194 26.945-9.666 6.724-17.42 15.836-22.517 26.5-4.943-10.786-12.59-20.055-22.194-26.945zm232.289 58.332v16.065h-295.619v-16.065zm-156.401 171.37v-78.183h16.062v78.183zm63.212-62.12h-32.15v-23.562c0-4.142-3.357-7.5-7.5-7.5h-31.062c-4.142 0-7.5 3.358-7.5 7.5v23.562h-31.028v-47.12h109.24zm15-31.07v-23.55c0-4.142-3.357-7.5-7.5-7.5h-124.24c-4.142 0-7.5 3.358-7.5 7.5v23.55h-78.19v-47.115h295.62v47.115z" fill="#ffffff"/><path d="m178.344 418.809c12.7 0 23.031-10.332 23.031-23.031v-46.601c0-4.142-3.358-7.5-7.5-7.5s-7.5 3.358-7.5 7.5v46.601c0 4.428-3.603 8.031-8.031 8.031s-8.031-3.603-8.031-8.031v-62.122c0-12.7-10.332-23.031-23.031-23.031s-23.031 10.332-23.031 23.031v15.521c0 4.428-3.602 8.03-8.03 8.031-4.895-.459-7.572-3.136-8.032-8.031v-62.125c0-4.142-3.358-7.5-7.5-7.5s-7.5 3.358-7.5 7.5v62.125c0 13.649 10.811 22.823 23.034 23.031 12.696.216 23.028-10.333 23.028-23.031v-15.521c0-4.428 3.603-8.031 8.031-8.031s8.031 3.603 8.031 8.031v62.122c0 12.699 10.332 23.031 23.031 23.031z" fill="#ffffff"/><path d="m318.124 310.625c-4.143 0-7.5 3.358-7.5 7.5v46.596c0 12.698 10.331 23.029 23.034 23.029 12.698 0 23.028-10.331 23.028-23.029v-31.067c0-4.427 3.602-8.029 8.034-8.029 4.427 0 8.028 3.602 8.028 8.029 0 12.698 10.33 23.028 23.033 23.028 12.698 0 23.029-10.331 23.029-23.028v-46.601c0-4.142-3.357-7.5-7.5-7.5s-7.5 3.358-7.5 7.5v46.601c0 4.427-3.602 8.028-8.034 8.028-4.427 0-8.028-3.602-8.028-8.028 0-12.698-10.33-23.029-23.033-23.029-12.698 0-23.029 10.331-23.029 23.029v31.067c0 4.427-3.602 8.029-8.033 8.029-4.428 0-8.029-3.602-8.029-8.029v-46.596c0-4.143-3.358-7.5-7.5-7.5z" fill="#ffffff"/></g></svg>