<svg xmlns="http://www.w3.org/2000/svg" id="Capa_1" height="512" viewBox="0 0 512.001 512.001" width="512"><g><path d="m508.732 198.998-240.035-164.004c-7.713-5.262-17.68-5.261-25.398.003l-61.96 42.33c-3.42 2.337-4.298 7.003-1.962 10.424 2.336 3.419 7.001 4.298 10.424 1.962l61.956-42.327c2.578-1.759 5.91-1.758 8.483-.003l233.976 159.864-8.758 13.463-225.226-153.883c-2.551-1.743-5.911-1.743-8.462 0l-225.226 153.882-8.759-13.463 145.026-99.094c3.42-2.337 4.298-7.003 1.961-10.423s-7.003-4.298-10.424-1.961l-151.078 103.23c-3.366 2.299-4.278 6.866-2.056 10.282l16.94 26.04c2.916 3.652 6.422 4.353 10.518 2.103l33.459-22.86v251.377h-23.57c-4.142 0-7.5 3.358-7.5 7.5v31.06c0 4.142 3.358 7.5 7.5 7.5h232.16c4.142 0 7.5-3.358 7.5-7.5s-3.358-7.5-7.5-7.5h-224.66v-16.06h419.88v16.06h-162.53c-4.142 0-7.5 3.358-7.5 7.5s3.358 7.5 7.5 7.5h170.03c4.142 0 7.5-3.358 7.5-7.5v-31.06c0-4.142-3.358-7.5-7.5-7.5h-23.57v-131.47c0-4.142-3.358-7.5-7.5-7.5s-7.5 3.358-7.5 7.5v131.47h-202.432v-209.94c0-4.142-3.358-7.5-7.5-7.5h-124.249c-4.142 0-7.5 3.358-7.5 7.5v209.94h-16.059v-261.626l178.87-122.21 178.87 122.21v97.466c0 4.142 3.358 7.5 7.5 7.5s7.5-3.358 7.5-7.5v-87.217l33.459 22.86c3.384 2.312 8.188 1.477 10.518-2.103l16.94-26.04c2.222-3.417 1.309-7.983-2.056-10.282zm-400.542 64.502h109.249v202.436h-109.249z" fill="#ffffff"/><path d="m287.063 387.749h124.249c4.142 0 7.5-3.358 7.5-7.5v-124.249c0-4.142-3.358-7.5-7.5-7.5h-124.249c-4.142 0-7.5 3.358-7.5 7.5v124.249c0 4.142 3.358 7.5 7.5 7.5zm7.5-62.124h47.125v47.125h-47.125zm62.124 47.124v-47.125h47.125v47.125zm47.125-62.124h-47.125v-47.125h47.125zm-62.125-47.125v47.125h-47.125v-47.125z" fill="#ffffff"/><path d="m131.752 341.687c-4.142 0-7.5 3.358-7.5 7.5v31.062c0 4.142 3.358 7.5 7.5 7.5s7.5-3.358 7.5-7.5v-31.062c0-4.143-3.358-7.5-7.5-7.5z" fill="#ffffff"/><path d="m296.516 189.595c2.743-1.169 4.533-3.853 4.559-6.834.026-2.982-1.717-5.696-4.439-6.912-18.742-8.169-29.303-27.123-33.476-46.333-.995-3.183-3.988-5.353-7.304-5.263-3.334.064-6.225 2.322-7.095 5.541-3.453 19.189-14.822 37.472-33.275 45.338-2.743 1.169-4.533 3.853-4.559 6.834-.026 2.982 1.717 5.696 4.439 6.912 18.742 8.17 29.302 27.123 33.476 46.333.979 3.136 3.883 5.264 7.157 5.264.049 0 .098 0 .146-.001 3.334-.064 6.225-2.322 7.095-5.541 3.454-19.188 14.823-37.472 33.276-45.338zm-40.676 19.491c-4.942-10.783-12.59-20.054-22.195-26.945 9.667-6.725 17.421-15.836 22.518-26.5 4.942 10.784 12.589 20.053 22.195 26.944-9.669 6.726-17.422 15.835-22.518 26.501z" fill="#ffffff"/><path d="m401.739 87.653c18.742 8.169 29.303 27.123 33.476 46.333.98 3.136 3.884 5.264 7.158 5.264.049 0 .098 0 .146-.001 3.334-.064 6.225-2.322 7.095-5.541 3.453-19.189 14.822-37.472 33.275-45.338 2.743-1.169 4.533-3.853 4.559-6.834.026-2.982-1.717-5.696-4.439-6.912-18.742-8.169-29.303-27.123-33.476-46.333-.995-3.183-3.999-5.319-7.304-5.263-3.334.064-6.225 2.322-7.095 5.541-3.453 19.189-14.822 37.472-33.275 45.338-2.743 1.169-4.533 3.853-4.559 6.834-.026 2.982 1.717 5.696 4.439 6.912zm40.796-33.237c4.942 10.784 12.589 20.053 22.195 26.944-9.667 6.725-17.421 15.836-22.518 26.5-4.942-10.784-12.589-20.053-22.195-26.944 9.668-6.724 17.422-15.835 22.518-26.5z" fill="#ffffff"/><path d="m28.992 64.629c18.742 8.169 29.302 27.123 33.476 46.333.979 3.136 3.883 5.264 7.157 5.264.049 0 .098 0 .146-.001 3.334-.064 6.225-2.322 7.095-5.541 3.453-19.189 14.822-37.472 33.275-45.338 2.743-1.169 4.533-3.853 4.559-6.834.026-2.982-1.717-5.696-4.439-6.912-18.741-8.169-29.302-27.123-33.475-46.334-.995-3.183-3.988-5.341-7.304-5.263-3.334.064-6.225 2.322-7.095 5.541-3.453 19.189-14.822 37.472-33.275 45.338-2.743 1.169-4.533 3.853-4.559 6.834-.026 2.983 1.717 5.697 4.439 6.913zm40.796-33.237c4.942 10.784 12.589 20.053 22.195 26.944-9.668 6.726-17.421 15.835-22.518 26.501-4.942-10.783-12.59-20.054-22.195-26.945 9.668-6.724 17.422-15.835 22.518-26.5z" fill="#ffffff"/></g></svg>