<svg xmlns="http://www.w3.org/2000/svg" id="Capa_1" height="512" viewBox="0 0 512 512" width="512"><g><path d="m318.119 77.13h31.07c4.143 0 7.5-3.357 7.5-7.5v-31.07c0-21.262-17.298-38.56-38.561-38.56h-186.38c-4.143 0-7.5 3.357-7.5 7.5v31.06c0 4.143 3.357 7.5 7.5 7.5h39.095v47.129h-23.562c-4.143 0-7.5 3.357-7.5 7.5v24.164c-26.332 3.938-46.592 26.706-46.592 54.117v122.81c0 4.143 3.357 7.5 7.5 7.5s7.5-3.357 7.5-7.5v-69.34h171.369v22.75c0 4.143 3.357 7.5 7.5 7.5s7.5-3.357 7.5-7.5v-76.22c0-27.411-20.259-50.179-46.591-54.117v-24.164c0-4.143-3.357-7.5-7.5-7.5h-23.562v-47.129h22.224c4.143 0 7.5-3.357 7.5-7.5s-3.357-7.5-7.5-7.5h-99.88v-16.06h178.88c12.991 0 23.561 10.568 23.561 23.56v23.57h-16.07v-8.57c0-12.406-10.094-22.5-22.5-22.5h-31.311c-4.143 0-7.5 3.357-7.5 7.5s3.357 7.5 7.5 7.5h31.311c4.136 0 7.5 3.364 7.5 7.5v16.07c-.001 4.142 3.357 7.5 7.499 7.5zm-38.56 101.84v38.471h-171.37v-38.471c0-21.85 17.735-39.635 39.565-39.719h92.239c21.831.084 39.566 17.869 39.566 39.719zm-46.591-54.72h-78.187v-16.062h78.187zm-47.124-31.062v-47.124h16.062v47.124z" fill="#ffffff"/><path d="m333.654 124.251c-12.699 0-23.031 10.332-23.031 23.031s10.332 23.031 23.031 23.031 23.031-10.332 23.031-23.031-10.331-23.031-23.031-23.031zm0 31.062c-4.429 0-8.031-3.603-8.031-8.031s3.603-8.031 8.031-8.031 8.031 3.603 8.031 8.031-3.602 8.031-8.031 8.031z" fill="#ffffff"/><path d="m333.654 279.562c-12.699 0-23.031 10.332-23.031 23.031s10.332 23.031 23.031 23.031 23.031-10.332 23.031-23.031-10.331-23.031-23.031-23.031zm0 31.063c-4.429 0-8.031-3.603-8.031-8.031s3.603-8.031 8.031-8.031 8.031 3.603 8.031 8.031-3.602 8.031-8.031 8.031z" fill="#ffffff"/><path d="m386.479 186.376c-17.828 0-32.332 14.504-32.332 32.332s14.504 32.332 32.332 32.332 32.332-14.504 32.332-32.332-14.504-32.332-32.332-32.332zm0 49.664c-9.557 0-17.332-7.775-17.332-17.332s7.775-17.332 17.332-17.332 17.332 7.775 17.332 17.332-7.776 17.332-17.332 17.332z" fill="#ffffff"/><path d="m287.059 280.37c-4.143 0-7.5 3.357-7.5 7.5v115.94h-171.37v-69.34c0-4.143-3.357-7.5-7.5-7.5s-7.5 3.357-7.5 7.5v139.03c0 21.229 17.271 38.5 38.5 38.5h124.369c21.229 0 38.5-17.271 38.5-38.5v-185.63c.001-4.142-3.357-7.5-7.499-7.5zm-31 216.63h-124.37c-12.958 0-23.5-10.542-23.5-23.5v-54.69h171.369v54.69c.001 12.958-10.541 23.5-23.499 23.5z" fill="#ffffff"/><path d="m170.844 349.187c0 12.699 10.332 23.031 23.031 23.031s23.03-10.332 23.03-23.031c0-4.429 3.603-8.031 8.031-8.031 12.699 0 23.031-10.332 23.031-23.031s-10.332-23.03-23.031-23.03c-4.429 0-8.031-3.603-8.031-8.031 0-12.699-10.332-23.031-23.031-23.031s-23.03 10.332-23.03 23.031c0 4.429-3.603 8.031-8.031 8.031-12.699 0-23.031 10.332-23.031 23.031s10.332 23.03 23.031 23.03c4.428-.001 8.031 3.602 8.031 8.031zm-16.063-31.063c0-4.428 3.603-8.03 8.031-8.03 12.699 0 23.031-10.332 23.031-23.031 0-4.429 3.603-8.031 8.031-8.031s8.03 3.603 8.03 8.031c0 12.699 10.332 23.031 23.031 23.031 4.429 0 8.031 3.603 8.031 8.031s-3.603 8.03-8.031 8.03c-12.699 0-23.031 10.332-23.031 23.031 0 4.429-3.603 8.031-8.031 8.031s-8.03-3.603-8.03-8.031c0-12.699-10.332-23.031-23.031-23.031-4.428 0-8.031-3.602-8.031-8.031z" fill="#ffffff"/><path d="m224.937 434.873h-62.124c-4.143 0-7.5 3.357-7.5 7.5s3.357 7.5 7.5 7.5h62.124c4.143 0 7.5-3.357 7.5-7.5s-3.358-7.5-7.5-7.5z" fill="#ffffff"/><path d="m224.937 186.376h-62.124c-4.143 0-7.5 3.357-7.5 7.5s3.357 7.5 7.5 7.5h62.124c4.143 0 7.5-3.357 7.5-7.5s-3.358-7.5-7.5-7.5z" fill="#ffffff"/></g></svg>