<svg xmlns="http://www.w3.org/2000/svg" id="Capa_1" height="512" viewBox="0 0 512 512" width="512"><g><path d="m315.954 295.056-31.062-31.062c-1.407-1.406-3.314-2.196-5.304-2.196h-26.427l-8.031-16.062h18.927c1.164 0 2.312-.271 3.354-.792l31.062-15.531c3.704-1.853 5.206-6.357 3.354-10.062-1.853-3.704-6.354-5.205-10.062-3.354l-29.478 14.739h-25.927c5.478-4.272 9.011-10.927 9.011-18.396 0-12.86-10.462-23.323-23.323-23.323s-23.323 10.463-23.323 23.323 10.463 23.323 23.323 23.323c1.043 0 2.067-.076 3.074-.209l-29.026 28.491c-1.437 1.41-2.246 3.339-2.246 5.353v31.062c0 4.143 3.358 7.5 7.5 7.5s7.5-3.357 7.5-7.5v-27.915l22.046-21.639 10.641 21.282 8.129 26.667-22.517 28.031c-2.594 3.229-2.079 7.95 1.15 10.545 3.673 2.536 7.187 2.153 10.544-1.15l25-31.123c1.553-1.935 2.05-4.512 1.326-6.884l-6.516-21.376h17.829l28.864 28.866c3.536 2.928 7.071 2.928 10.606 0 2.931-2.931 2.931-7.679.002-10.608zm-102.23-82.717c0-4.59 3.734-8.323 8.323-8.323s8.323 3.733 8.323 8.323-3.733 8.323-8.323 8.323-8.323-3.733-8.323-8.323z" fill="#ffffff"/><path d="m279.589 354.983h-62.125c-4.142 0-7.5 3.357-7.5 7.5s3.358 7.5 7.5 7.5h62.125c4.143 0 7.5-3.357 7.5-7.5s-3.357-7.5-7.5-7.5z" fill="#ffffff"/><path d="m274.34 15h106.9c4.076 0 7.368 3.189 7.494 7.265l5.199 166.399c.127 4.061 3.458 7.266 7.491 7.266.079 0 .159-.001.239-.004 4.14-.129 7.392-3.59 7.262-7.73l-5.199-166.396c-.376-12.225-10.254-21.8-22.486-21.8h-106.9c-4.143 0-7.5 3.357-7.5 7.5s3.358 7.5 7.5 7.5z" fill="#ffffff"/><path d="m418.326 488.796-8.38-267.92c-.129-4.14-3.567-7.388-7.73-7.262-4.141.129-7.392 3.591-7.262 7.73l8.38 267.916c-.318 4.693-2.816 7.273-7.494 7.739h-47.42c-4.071 0-7.437-3.314-7.501-7.389-.001-.048-.002-.096-.004-.144l-.597-17.027c-.237-12.177-10.312-22.07-22.498-22.07h-73.19c-4.142 0-7.5 3.357-7.5 7.5s3.358 7.5 7.5 7.5h73.19c4.071 0 7.437 3.314 7.501 7.389.001.048.002.096.004.144l.597 17.026c.237 12.178 10.313 22.072 22.498 22.072h47.42c14.04-1.389 21.535-9.124 22.486-23.204z" fill="#ffffff"/><path d="m206.596 115.036h98.809c16.112 0 29.454-13.554 29.203-29.663-.247-15.854-13.348-28.751-29.203-28.751h-98.809c-15.855 0-28.956 12.897-29.203 28.751-.252 16.109 13.092 29.663 29.203 29.663zm-14.205-29.429c.121-7.712 6.493-13.985 14.205-13.985h98.809c7.713 0 14.085 6.273 14.205 13.985-.707 8.775-5.442 13.585-14.205 14.429h-98.809c-8.763-.844-13.498-5.653-14.205-14.429z" fill="#ffffff"/><path d="m211.94 450.37h-17.76c-12.187 0-22.264 9.896-22.498 22.075l-.598 17.021c-.001.049-.003.097-.003.145-.064 4.074-3.43 7.389-7.501 7.389h-47.42c-4.677-.466-7.175-3.044-7.494-7.735l14.601-467.003c.125-4.072 3.417-7.262 7.493-7.262h110.89c4.142 0 7.5-3.357 7.5-7.5s-3.358-7.5-7.5-7.5h-110.89c-12.231 0-22.108 9.575-22.486 21.796l-14.6 467.004c.953 14.078 8.449 21.811 22.487 23.2h47.42c12.186 0 22.261-9.894 22.498-22.07l.598-17.026c.001-.049.003-.097.003-.145.064-4.074 3.43-7.389 7.501-7.389h17.76c4.142 0 7.5-3.357 7.5-7.5s-3.359-7.5-7.501-7.5z" fill="#ffffff"/><path d="m147.505 151.393-5.508 251.774c.35 4.657 2.849 7.212 7.498 7.664h213.01c4.649-.452 7.148-3.006 7.498-7.664l-5.508-251.774c-.089-4.077-3.42-7.336-7.498-7.336h-201.994c-4.078 0-7.409 3.258-7.498 7.336zm14.836 7.664h187.318l5.18 236.774h-197.678z" fill="#ffffff"/></g></svg>